# xmcd
#
# Track frame offsets: 
#        150
#        7094
#        32363
#        39270
#        57856
#        83814
#        86820
#        115006
#        135445
#        153080
#        179853
#        189154
#        200780
#        225523
#        235032
#        241266
#        255836
#        259154
#        280869
#        301038
#        301542
#        310213
#        349297
#
# Disc length: 4739 seconds
#
# Revision: 1
# Processed by: cddbd v1.5.2PL0 Copyright (c) Steve Scherf et al.
# Submitted via: ExactAudioCopyFreeDBPlugin 1.0
#
DISCID=1e128117
DTITLE=Barry Gray / Thunderbirds (Original Television Soundtrack)
DYEAR=1965
DGENRE=Soundtrack
TTITLE0=Thunderbirds Main Titles
TTITLE1=Pit Of Peril - Jungle Invader
TTITLE2=Pit Of Peril - Mission To Hell
TTITLE3=Pit Of Peril - The Danger Zone
TTITLE4=Pit Of Peril - The Recovery Vehicles
TTITLE5=City Of Fire - Cops And Robbers
TTITLE6=End Of The Road - Bang On Schedule
TTITLE7=End Of The Road - Eddie's Monsoon
TTITLE8=End Of The Road - On The Edge
TTITLE9=End Of The Road - Roadside Recovery
TTITLE10=Lord Parker's 'Oliday - Monte Bianco
TTITLE11=Lord Parker's 'Oliday - Thunderbirds Are Go
TTITLE12=Edge Of Impact - The Red Arrow
TTITLE13=Edge Of Impact - Collision Course
TTITLE14=Edge Of Impact - Tower Of Terror
TTITLE15=Edge Of Impact - Down To Earth
TTITLE16=The Duchess Assignment - Braquasso's Blue Period
TTITLE17=Desperate Intruder - Caravan To Anasta
TTITLE18=Desperate Intruder - The Lost Temple Of Anasta
TTITLE19=Desperate Intruder - Commercial Break
TTITLE20=Desperate Intruder - A Veritable Swarm
TTITLE21=Desperate Intruder - The Treasure Of The Kings
TTITLE22=Thunderbirds End Titles
EXTD=
EXTT0=
EXTT1=
EXTT2=
EXTT3=
EXTT4=
EXTT5=
EXTT6=
EXTT7=
EXTT8=
EXTT9=
EXTT10=
EXTT11=
EXTT12=
EXTT13=
EXTT14=
EXTT15=
EXTT16=
EXTT17=
EXTT18=
EXTT19=
EXTT20=
EXTT21=
EXTT22=
PLAYORDER=
